<?xml version="1.0" encoding="UTF-8"?>
<mxfile>
    <diagram name="Структура IT-отдела">
        <mxGraphModel>
            <root>
                <!-- Базовые элементы -->
                <mxCell id="0" />
                <mxCell id="1" parent="0" />

                <!-- Главный IT-отдел -->
                <mxCell id="it_dept" value="IT-отдел" style="swimlane;fontStyle=1;align=center;verticalAlign=top;" parent="1" vertex="1">
                    <mxGeometry x="200" y="50" width="400" height="500" as="geometry" />
                </mxCell>

                <!-- Начальник IT-отдела (внутри swimlane) -->
                <mxCell id="it_head" value="Начальник IT-отдела" style="rounded=1;whiteSpace=wrap;fontStyle=1;" parent="it_dept" vertex="1">
                    <mxGeometry x="150" y="30" width="100" height="40" as="geometry" />
                </mxCell>

                <!-- Подразделение: Кибербезопасность -->
                <mxCell id="cyber_dept" value="Отдел кибербезопасности" style="swimlane;fontStyle=0;align=center;" parent="it_dept" vertex="1">
                    <mxGeometry x="50" y="100" width="300" height="180" as="geometry" />
                </mxCell>

                <!-- Начальник кибербезопасности -->
                <mxCell id="cyber_head" value="Начальник отдела по кибербезопасности" style="rounded=1;whiteSpace=wrap;fontStyle=0;" parent="cyber_dept" vertex="1">
                    <mxGeometry x="80" y="20" width="140" height="40" as="geometry" />
                </mxCell>

                <!-- Сотрудники кибербезопасности -->
                <mxCell id="cyber_emp1" value="Системные администраторы и менеджеры" style="rounded=0;whiteSpace=wrap;" parent="cyber_dept" vertex="1">
                    <mxGeometry x="20" y="80" width="260" height="40" as="geometry" />
                </mxCell>
                <mxCell id="cyber_emp2" value="Сис. инженеры и сис.админы" style="rounded=0;whiteSpace=wrap;" parent="cyber_dept" vertex="1">
                    <mxGeometry x="20" y="130" width="260" height="40" as="geometry" />
                </mxCell>

                <!-- Подразделение: Сети и серверы -->
                <mxCell id="network_dept" value="Отдел управления сетью и серверами" style="swimlane;fontStyle=0;align=center;" parent="it_dept" vertex="1">
                    <mxGeometry x="50" y="300" width="300" height="150" as="geometry" />
                </mxCell>

                <!-- Сотрудники сетевого отдела -->
                <mxCell id="network_emp1" value="Аналитики, менеджеры, инноваторы" style="rounded=0;whiteSpace=wrap;" parent="network_dept" vertex="1">
                    <mxGeometry x="20" y="20" width="260" height="40" as="geometry" />
                </mxCell>

                <!-- Связи (если нужны стрелки) -->
                <mxCell id="link_cyber" source="it_head" target="cyber_dept" style="edgeStyle=orthogonal;endArrow=classic;entryX=0.5;entryY=0;" parent="1" edge="1" />
                <mxCell id="link_network" source="it_head" target="network_dept" style="edgeStyle=orthogonal;endArrow=classic;entryX=0.5;entryY=0;" parent="1" edge="1" />
            </root>
        </mxGraphModel>
    </diagram>
</mxfile>
